<svg width="24" height="24" viewBox="0 0 24 24" fill="none" xmlns="http://www.w3.org/2000/svg">
<path d="M16.351 14C16.431 13.34 16.491 12.68 16.491 12C16.491 11.32 16.431 10.66 16.351 10H19.731C19.891 10.64 19.991 11.31 19.991 12C19.991 12.69 19.891 13.36 19.731 14H16.351ZM14.581 19.56C15.181 18.45 15.641 17.25 15.961 16H18.911C17.9421 17.6683 16.4051 18.932 14.581 19.56ZM14.331 14H9.65097C9.55097 13.34 9.49097 12.68 9.49097 12C9.49097 11.32 9.55097 10.65 9.65097 10H14.331C14.421 10.65 14.491 11.32 14.491 12C14.491 12.68 14.421 13.34 14.331 14ZM11.991 19.96C11.161 18.76 10.491 17.43 10.081 16H13.901C13.491 17.43 12.821 18.76 11.991 19.96ZM7.99097 8H5.07097C6.02982 6.32721 7.56576 5.06149 9.39097 4.44C8.79097 5.55 8.34097 6.75 7.99097 8ZM5.07097 16H7.99097C8.34097 17.25 8.79097 18.45 9.39097 19.56C7.56959 18.9317 6.03581 17.6677 5.07097 16ZM4.25097 14C4.09097 13.36 3.99097 12.69 3.99097 12C3.99097 11.31 4.09097 10.64 4.25097 10H7.63097C7.55097 10.66 7.49097 11.32 7.49097 12C7.49097 12.68 7.55097 13.34 7.63097 14H4.25097ZM11.991 4.03C12.821 5.23 13.491 6.57 13.901 8H10.081C10.491 6.57 11.161 5.23 11.991 4.03ZM18.911 8H15.961C15.648 6.76146 15.1845 5.5659 14.581 4.44C16.421 5.07 17.951 6.34 18.911 8ZM11.991 2C6.46097 2 1.99097 6.5 1.99097 12C1.99097 14.6522 3.04454 17.1957 4.9199 19.0711C5.84848 19.9997 6.95088 20.7362 8.16413 21.2388C9.37739 21.7413 10.6777 22 11.991 22C14.6431 22 17.1867 20.9464 19.062 19.0711C20.9374 17.1957 21.991 14.6522 21.991 12C21.991 10.6868 21.7323 9.38642 21.2298 8.17317C20.7272 6.95991 19.9906 5.85752 19.062 4.92893C18.1334 4.00035 17.0311 3.26375 15.8178 2.7612C14.6045 2.25866 13.3042 2 11.991 2Z" fill="#828282"/>
</svg>
